<?xml version="1.0" standalone="no"?>
<!DOCTYPE svg PUBLIC "-//W3C//DTD SVG 20010904//EN"
 "http://www.w3.org/TR/2001/REC-SVG-20010904/DTD/svg10.dtd">
<svg version="1.0" xmlns="http://www.w3.org/2000/svg"
 width="260.000000pt" height="260.000000pt" viewBox="0 0 260.000000 260.000000"
 preserveAspectRatio="xMidYMid meet">
<metadata>
Created by potrace 1.11, written by Peter Selinger 2001-2013
</metadata>
<g transform="translate(0.000000,260.000000) scale(0.100000,-0.100000)"
fill="#000000" stroke="none">
<path d="M765 2225 c-16 -8 -50 -20 -75 -27 -28 -8 -46 -20 -48 -30 -2 -10 13
-46 34 -80 20 -35 44 -76 54 -93 9 -16 62 -106 118 -200 55 -93 113 -192 129
-218 15 -27 38 -64 50 -83 49 -75 38 -107 -42 -118 -25 -4 -69 -15 -98 -25
-29 -10 -73 -22 -98 -26 -24 -4 -79 -18 -122 -31 -43 -13 -90 -24 -105 -24
-19 0 -58 25 -127 80 -109 86 -124 91 -192 61 -63 -29 -75 -67 -35 -113 14
-17 63 -100 169 -289 69 -124 82 -131 186 -95 42 14 83 26 91 26 9 0 51 11 94
24 109 34 215 64 302 86 186 47 239 61 295 79 33 11 78 23 100 26 22 4 76 17
120 30 44 13 109 31 145 40 142 36 269 67 340 84 164 40 245 70 277 104 77 79
71 183 -13 252 -54 45 -98 52 -174 30 -87 -26 -257 -73 -357 -99 -50 -14 -100
-29 -111 -35 -12 -6 -37 -11 -57 -11 -33 0 -47 9 -114 73 -42 40 -159 151
-261 247 -101 96 -222 211 -268 255 -126 120 -144 129 -207 100z"/>
<path d="M1199 573 c-744 -3 -939 -6 -947 -16 -15 -17 -20 -193 -6 -207 12
-12 2042 -19 2062 -7 8 6 12 39 12 107 0 123 -7 131 -115 128 -38 -2 -491 -4
-1006 -5z"/>
</g>
</svg>
